<svg width="595" height="147" viewBox="0 0 595 147" fill="none" xmlns="http://www.w3.org/2000/svg">
<path d="M53.608 106.448H20.008L13.384 122H0.52L30.76 54.8H43.048L73.384 122H60.328L53.608 106.448ZM49.48 96.656L36.808 67.28L24.232 96.656H49.48ZM109.42 122.96C100.14 122.96 92.908 120.368 87.724 115.184C82.54 109.936 79.948 102.448 79.948 92.72V54.8H92.428V92.24C92.428 105.424 98.124 112.016 109.516 112.016C120.844 112.016 126.508 105.424 126.508 92.24V54.8H138.796V92.72C138.796 102.448 136.204 109.936 131.02 115.184C125.9 120.368 118.7 122.96 109.42 122.96ZM168.687 65.36H146.415V54.8H203.439V65.36H181.167V122H168.687V65.36ZM272.517 54.8V122H260.037V93.2H225.285V122H212.805V54.8H225.285V82.544H260.037V54.8H272.517ZM321.916 122.96C315.068 122.96 308.892 121.488 303.388 118.544C297.884 115.536 293.564 111.408 290.428 106.16C287.292 100.848 285.724 94.928 285.724 88.4C285.724 81.872 287.292 75.984 290.428 70.736C293.564 65.424 297.884 61.296 303.388 58.352C308.892 55.344 315.068 53.84 321.916 53.84C328.764 53.84 334.94 55.344 340.444 58.352C345.948 61.296 350.268 65.392 353.404 70.64C356.54 75.888 358.108 81.808 358.108 88.4C358.108 94.992 356.54 100.912 353.404 106.16C350.268 111.408 345.948 115.536 340.444 118.544C334.94 121.488 328.764 122.96 321.916 122.96ZM321.916 112.016C326.396 112.016 330.428 111.024 334.012 109.04C337.596 106.992 340.412 104.176 342.46 100.592C344.508 96.944 345.532 92.88 345.532 88.4C345.532 83.92 344.508 79.888 342.46 76.304C340.412 72.656 337.596 69.84 334.012 67.856C330.428 65.808 326.396 64.784 321.916 64.784C317.436 64.784 313.404 65.808 309.82 67.856C306.236 69.84 303.42 72.656 301.372 76.304C299.324 79.888 298.3 83.92 298.3 88.4C298.3 92.88 299.324 96.944 301.372 100.592C303.42 104.176 306.236 106.992 309.82 109.04C313.404 111.024 317.436 112.016 321.916 112.016ZM415.305 122L401.577 102.32C401.001 102.384 400.137 102.416 398.985 102.416H383.817V122H371.337V54.8H398.985C404.809 54.8 409.865 55.76 414.153 57.68C418.505 59.6 421.833 62.352 424.137 65.936C426.441 69.52 427.593 73.776 427.593 78.704C427.593 83.76 426.345 88.112 423.849 91.76C421.417 95.408 417.897 98.128 413.289 99.92L428.745 122H415.305ZM415.017 78.704C415.017 74.416 413.609 71.12 410.792 68.816C407.977 66.512 403.849 65.36 398.409 65.36H383.817V92.144H398.409C403.849 92.144 407.977 90.992 410.792 88.688C413.609 86.32 415.017 82.992 415.017 78.704ZM441.555 54.8H454.035V111.44H489.171V122H441.555V54.8ZM520.985 98.288V122H508.505V98.48L482.105 54.8H495.449L515.129 87.536L535.001 54.8H547.289L520.985 98.288Z" fill="white"/>
<path d="M583.326 100.156L587.218 101.712L584.741 107.678L580.85 107.938L578.728 104.565L583.326 100.156Z" fill="#F7C5A2"/>
<path d="M571.299 112.088V114.942L565.286 114.682L565.369 112.332L571.299 112.088Z" fill="#F7C5A2"/>
<path d="M584.741 65.9138L582.619 85.3695L575.898 113.904L565.286 112.866L568.823 90.298L567.408 69.5457L584.741 65.9138Z" fill="#2F2E41"/>
<path d="M556.442 51.3872L581.912 51.6466L584.741 65.914L567.408 71.8803L563.163 83.2942L584.741 100.156L576.252 107.938C576.252 107.938 564.224 96.0051 555.381 89.2605C546.537 82.516 550.782 62.0229 550.782 62.0229L556.442 51.3872Z" fill="#2F2E41"/>
<path d="M571.653 14.5515C567.355 14.5515 563.871 11.9964 563.871 8.84457C563.871 5.69272 567.355 3.13763 571.653 3.13763C575.951 3.13763 579.435 5.69272 579.435 8.84457C579.435 11.9964 575.951 14.5515 571.653 14.5515Z" fill="#F7C5A2"/>
<path d="M574.483 12.7357V18.4426L569.177 24.6683C569.177 24.6683 561.041 20.2584 562.809 19.2208C564.578 18.1832 564.932 10.1416 564.932 10.1416L574.483 12.7357Z" fill="#F7C5A2"/>
<path d="M574.483 17.4051L579.789 22.0743L577.667 54.4999L561.041 54.2406L558.211 25.9655L561.748 18.702L564.175 16.2811L568.469 21.0366L574.483 17.4051Z" fill="#FEFEFF"/>
<path d="M582.973 34.2664L586.864 45.1615L582.973 56.0565L589.34 62.2823L595 42.5674C595 42.5674 590.755 26.4842 590.401 24.6684C590.048 22.8525 589.34 22.5931 589.34 22.5931L586.51 22.8525L582.973 34.2664Z" fill="#2F2E41"/>
<path d="M554.673 38.4167L552.197 41.7892L551.49 47.4961L552.905 53.9812L547.952 59.9476L543 43.6049L548.306 22.5929H550.429L554.673 38.4167Z" fill="#2F2E41"/>
<path d="M584.741 99.8962C584.741 99.8962 589.694 100.934 591.463 101.193C593.231 101.453 590.401 106.381 590.401 106.381C590.401 106.381 588.633 113.126 588.279 114.423C587.925 115.72 585.449 120.13 582.265 120.649C579.082 121.167 581.204 111.569 581.204 111.569C581.204 111.569 579.789 108.457 579.789 107.419C579.789 106.381 581.912 106.9 581.912 106.9C587.571 106.381 584.741 99.8962 584.741 99.8962Z" fill="#2F2E41"/>
<path d="M573.068 119.87C572.714 121.427 573.422 121.427 567.762 121.946C562.102 122.465 563.517 119.092 563.517 119.092C563.753 117.502 564.228 115.937 564.932 114.423C565.993 112.348 571.653 114.942 571.653 114.942C571.653 114.942 573.422 118.314 573.068 119.87Z" fill="#2F2E41"/>
<path d="M564.923 10.3228L564.738 12.6298C564.738 12.6298 562.456 8.84459 562.102 4.9535C561.748 1.06241 567.762 0.284187 571.299 0.0247818C574.837 -0.234623 580.85 1.58122 580.85 3.65647C580.85 5.73173 574.483 5.21291 572.007 4.6941C569.53 4.17529 568.469 8.5852 568.469 8.5852L567.054 8.8446L564.923 10.3228Z" fill="#2F2E41"/>
<path d="M576.571 19.242L574.483 17.405L568.469 21.0365L574.483 24.1494L576.571 19.242Z" fill="#FEFEFF"/>
<path d="M561.748 18.702L564.224 16.3674L568.469 21.0366L563.163 23.8902L561.748 18.702Z" fill="#FEFEFF"/>
<path d="M584.034 37.8981L582.619 47.7555L585.449 53.7219L587.218 59.4288C587.218 59.4288 587.218 64.8764 580.143 65.1358C573.068 65.3952 567.054 48.7932 567.054 48.7932C567.054 48.7932 565.993 52.4249 565.286 54.5001C564.578 56.5754 552.551 64.8764 552.551 64.8764C552.551 64.8764 549.721 64.617 547.245 60.4665C544.769 56.316 552.197 52.4249 552.197 52.4249L554.32 46.9773L553.612 40.2328L548.66 22.5931L563.34 17.0159L561.748 31.9318L567.054 43.605L575.014 17.7941L577.667 19.2209L588.986 22.5931L584.034 37.8981Z" fill="#2F2E41"/>
</svg>
